# Sample Ring OBJ File
# Generated for JewelryAR Android App
# This is a basic ring model

# Ring vertices (circular)
v 0.0 0.0 0.05    # Center top
v 0.05 0.0 0.0    # Right
v 0.0354 0.0354 0.0 # Top right
v 0.0 0.05 0.0    # Top
v -0.0354 0.0354 0.0 # Top left
v -0.05 0.0 0.0   # Left
v -0.0354 -0.0354 0.0 # Bottom left
v 0.0 -0.05 0.0   # Bottom
v 0.0354 -0.0354 0.0 # Bottom right
v 0.0 0.0 -0.05   # Center bottom

# Inner ring vertices
v 0.03 0.0 0.0    # Inner right
v 0.0212 0.0212 0.0 # Inner top right
v 0.0 0.03 0.0    # Inner top
v -0.0212 0.0212 0.0 # Inner top left
v -0.03 0.0 0.0   # Inner left
v -0.0212 -0.0212 0.0 # Inner bottom left
v 0.0 -0.03 0.0   # Inner bottom
v 0.0212 -0.0212 0.0 # Inner bottom right

# Texture coordinates
vt 0.5 0.5
vt 1.0 0.5
vt 0.933 0.933
vt 0.5 1.0
vt 0.067 0.933
vt 0.0 0.5
vt 0.067 0.067
vt 0.5 0.0
vt 0.933 0.067
vt 0.5 0.5

# Normals
vn 0.0 0.0 1.0
vn 0.0 0.0 -1.0

# Ring outer faces
f 1/1/1 2/2/1 3/3/1
f 1/1/1 3/3/1 4/4/1
f 1/1/1 4/4/1 5/5/1
f 1/1/1 5/5/1 6/6/1
f 1/1/1 6/6/1 7/7/1
f 1/1/1 7/7/1 8/8/1
f 1/1/1 8/8/1 9/9/1
f 1/1/1 9/9/1 2/2/1

# Ring bottom faces
f 10/10/2 3/3/2 2/2/2
f 10/10/2 4/4/2 3/3/2
f 10/10/2 5/5/2 4/4/2
f 10/10/2 6/6/2 5/5/2
f 10/10/2 7/7/2 6/6/2
f 10/10/2 8/8/2 7/7/2
f 10/10/2 9/9/2 8/8/2
f 10/10/2 2/2/2 9/9/2

# Material definition
mtllib sample_ring.mtl
usemtl gold_material
